<?xml version="1.0" encoding="UTF-8" standalone="no"?>
<!-- Created with Inkscape (http://www.inkscape.org/) -->

<svg
   width="210mm"
   height="297mm"
   viewBox="0 0 210 297"
   version="1.1"
   id="svg7582"
   inkscape:version="1.1.1 (3bf5ae0d25, 2021-09-20)"
   sodipodi:docname="Arneis_logo_.svg"
   xmlns:inkscape="http://www.inkscape.org/namespaces/inkscape"
   xmlns:sodipodi="http://sodipodi.sourceforge.net/DTD/sodipodi-0.dtd"
   xmlns="http://www.w3.org/2000/svg"
   xmlns:svg="http://www.w3.org/2000/svg">
  <sodipodi:namedview
     id="namedview7584"
     pagecolor="#ffffff"
     bordercolor="#666666"
     borderopacity="1.0"
     inkscape:pageshadow="2"
     inkscape:pageopacity="0.0"
     inkscape:pagecheckerboard="0"
     inkscape:document-units="mm"
     showgrid="false"
     inkscape:zoom="1.1253621"
     inkscape:cx="397.64977"
     inkscape:cy="385.20934"
     inkscape:window-width="1920"
     inkscape:window-height="1017"
     inkscape:window-x="-8"
     inkscape:window-y="-8"
     inkscape:window-maximized="1"
     inkscape:current-layer="layer1" />
  <defs
     id="defs7579">
    <rect
       x="-589.92334"
       y="1163.175"
       width="224.42737"
       height="268.0304"
       id="rect111832-9" />
  </defs>
  <g
     inkscape:label="Livello 1"
     inkscape:groupmode="layer"
     id="layer1">
    <rect
       style="display:inline;fill:#ffffff;fill-opacity:1;fill-rule:evenodd;stroke:#000000;stroke-width:0;stroke-miterlimit:4;stroke-dasharray:none;stroke-opacity:1"
       id="rect81623-9-7"
       width="145.91977"
       height="4.6789713"
       x="16.954842"
       y="99.79039" />
    <path
       style="display:inline;fill:#000000;fill-opacity:1;fill-rule:evenodd;stroke:#e19200;stroke-width:0;stroke-miterlimit:4;stroke-dasharray:none"
       id="path73362-8-1-5"
       sodipodi:type="arc"
       sodipodi:cx="62.88139"
       sodipodi:cy="111.23385"
       sodipodi:rx="11.258447"
       sodipodi:ry="11.258253"
       sodipodi:start="6.2183812"
       sodipodi:end="6.2106145"
       sodipodi:open="true"
       sodipodi:arc-type="arc"
       d="M 74.116204,110.50478 A 11.258447,11.258253 0 0 1 63.632286,122.46703 11.258447,11.258253 0 0 1 51.649491,112.00654 11.258447,11.258253 0 0 1 62.086876,100.00366 11.258447,11.258253 0 0 1 74.110203,110.41755" />
    <rect
       style="fill:#ffffff;fill-opacity:1;fill-rule:evenodd;stroke:#aa0000;stroke-width:0;stroke-miterlimit:4;stroke-dasharray:none"
       id="rect6985"
       width="4.0884609"
       height="8.0961733"
       x="60.779179"
       y="97.550911" />
    <path
       style="display:inline;fill:#ffffff;fill-opacity:1;fill-rule:evenodd;stroke:#e19200;stroke-width:0;stroke-miterlimit:4;stroke-dasharray:none"
       id="path73774-3-2-7"
       sodipodi:type="arc"
       sodipodi:cx="111.23385"
       sodipodi:cy="-62.88139"
       sodipodi:rx="7.9172997"
       sodipodi:ry="7.917233"
       sodipodi:start="6.2183812"
       sodipodi:end="6.2106145"
       sodipodi:open="true"
       sodipodi:arc-type="arc"
       transform="rotate(90)"
       d="m 119.13453,-63.3941 a 7.9172997,7.917233 0 0 1 -7.37263,8.412314 7.9172997,7.917233 0 0 1 -8.42668,-7.356217 7.9172997,7.917233 0 0 1 7.3399,-8.44088 7.9172997,7.917233 0 0 1 8.45519,7.323438" />
    <rect
       style="display:inline;fill:#ffffff;fill-opacity:1;fill-rule:evenodd;stroke:#000000;stroke-width:0;stroke-miterlimit:4;stroke-dasharray:none;stroke-opacity:1"
       id="rect102964-2-24"
       width="4.9872499"
       height="8.1426105"
       x="51.222076"
       y="111.84047" />
    <rect
       style="display:inline;fill:#ffffff;fill-opacity:1;fill-rule:evenodd;stroke:#e19200;stroke-width:0;stroke-miterlimit:4;stroke-dasharray:none"
       id="rect74366-4-9-4"
       width="16.29211"
       height="24.438168"
       x="55.14872"
       y="112.35291" />
    <rect
       style="fill:#e4d96f;fill-opacity:1;fill-rule:evenodd;stroke:#aa0000;stroke-width:0;stroke-miterlimit:4;stroke-dasharray:none"
       id="rect7111"
       width="20.013012"
       height="25.471102"
       x="52.853588"
       y="111.28455" />
    <text
       xml:space="preserve"
       style="font-style:normal;font-variant:normal;font-weight:normal;font-stretch:condensed;font-size:43.4138px;line-height:1.25;font-family:Arial;-inkscape-font-specification:'Arial Condensed';display:inline;stroke-width:1.08536"
       x="136.8237"
       y="136.19872"
       id="text10992-5-9-7"><tspan
         sodipodi:role="line"
         id="tspan10990-9-4-4"
         style="font-style:normal;font-variant:normal;font-weight:normal;font-stretch:condensed;font-family:Arial;-inkscape-font-specification:'Arial Condensed';stroke-width:1.08536"
         x="136.8237"
         y="136.19872">S</tspan></text>
    <rect
       style="display:inline;fill:#ffffff;fill-opacity:1;fill-rule:evenodd;stroke:#e19200;stroke-width:0;stroke-miterlimit:4;stroke-dasharray:none"
       id="rect76668-5-77-4"
       width="15.144883"
       height="18.493422"
       x="135.04559"
       y="125.01838" />
    <g
       aria-label="R"
       id="text99602-8-2"
       style="font-stretch:condensed;font-size:103.342px;line-height:1.25;font-family:Arial;-inkscape-font-specification:'Arial Condensed';display:inline;stroke-width:2.58357"
       transform="matrix(0.43713872,0,0,0.43713872,27.906608,-148.09)">
      <path
         d="m 97.640706,651.77887 v -73.97431 h 26.895164 c 5.61787,0 9.75559,0.68962 12.41315,2.06886 2.69119,1.37924 4.89461,3.68358 6.61025,6.91302 1.71564,3.19579 2.57346,6.91301 2.57346,11.15165 0,5.58423 -1.46334,10.10881 -4.39002,13.57373 -2.89303,3.46492 -7.11485,5.66834 -12.66545,6.61025 10.58269,9.47664 22.45311,21.88065 28.52676,32.97095 h -7.72568 c -6.90682,-8.44196 -20.30403,-22.91999 -28.67283,-31.0535 -1.48016,-0.74008 -3.56584,-1.11012 -6.25704,-1.11012 h -9.28463 v 32.84944 z m 8.023134,-41.32671 h 17.25731 c 3.76767,0 6.62707,-0.45414 8.57819,-1.36242 1.95112,-0.90828 3.49856,-2.33798 4.64232,-4.2891 1.14376,-1.95111 1.71564,-4.22181 1.71564,-6.81209 0,-3.73404 -1.0933,-6.66072 -3.2799,-8.78003 -2.1866,-2.15296 -5.43286,-3.22944 -9.73877,-3.22944 h -19.17479 z"
         id="path2966-8"
         sodipodi:nodetypes="ccsccscccccsccccsssscscc" />
    </g>
    <text
       xml:space="preserve"
       style="font-style:normal;font-variant:normal;font-weight:normal;font-stretch:condensed;font-size:38.271px;line-height:1.25;font-family:Arial;-inkscape-font-specification:'Arial Condensed';display:inline;stroke-width:0.956788"
       x="97.026726"
       y="-67.894073"
       id="text10096-1-5-5"
       transform="matrix(-0.00202434,1.1865239,-0.84279317,-0.00284997,0,0)"><tspan
         sodipodi:role="line"
         id="tspan10094-0-9-1"
         style="font-style:normal;font-variant:normal;font-weight:normal;font-stretch:condensed;font-family:Arial;-inkscape-font-specification:'Arial Condensed';stroke-width:0.956788"
         x="97.026726"
         y="-67.894073">I</tspan></text>
    <text
       xml:space="preserve"
       style="font-style:normal;font-variant:normal;font-weight:normal;font-stretch:condensed;font-size:45.0374px;line-height:1.25;font-family:Arial;-inkscape-font-specification:'Arial Condensed';display:inline;stroke-width:1.12593"
       x="108.17059"
       y="136.75937"
       id="text6334-3-31-1"><tspan
         sodipodi:role="line"
         id="tspan6332-3-6-2"
         style="font-style:normal;font-variant:normal;font-weight:normal;font-stretch:condensed;font-family:Arial;-inkscape-font-specification:'Arial Condensed';stroke-width:1.12593"
         x="108.17059"
         y="136.75937">E</tspan></text>
    <g
       aria-label="N"
       id="text8850-6-7-3"
       style="font-stretch:condensed;font-size:103.413px;line-height:1.25;font-family:Arial;-inkscape-font-specification:'Arial Condensed';display:inline;stroke-width:2.58533"
       transform="matrix(0.43713872,0,0,0.43713872,27.906608,-148.09)">
      <path
         d="m 149.87834,651.83368 v -74.02513 h 8.23063 l 31.9126,58.11932 v -58.11932 h 7.67519 v 74.02513 h -8.23063 l -31.86211,-58.16981 v 58.16981 z"
         id="path3083-9" />
    </g>
    <path
       style="display:inline;fill:#00ffff;stroke:#000000;stroke-width:3.34371;stroke-linecap:butt;stroke-linejoin:miter;stroke-miterlimit:4;stroke-dasharray:none;stroke-opacity:1"
       d="m 53.285012,138.19624 c 0.01744,-26.97847 0.01744,-26.97847 0.01744,-26.97847"
       id="path64894-3-5-3" />
    <rect
       style="display:inline;fill:#000000;fill-opacity:1;fill-rule:evenodd;stroke:#e19200;stroke-width:0;stroke-miterlimit:4;stroke-dasharray:none"
       id="rect77370-1-8-7"
       width="21.834562"
       height="3.8226089"
       x="128.9129"
       y="132.94711" />
    <rect
       style="fill:#ffffff;fill-opacity:1;fill-rule:evenodd;stroke:#000000;stroke-width:0;stroke-miterlimit:4;stroke-dasharray:none;stroke-opacity:1"
       id="rect81623-9-6"
       width="145.91977"
       height="4.6789713"
       x="50.434261"
       y="136.52798" />
    <text
       xml:space="preserve"
       transform="matrix(1.0358566,0,0,0.92856983,740.87333,-982.47133)"
       id="text111830-5"
       style="font-style:normal;font-variant:normal;font-weight:normal;font-stretch:normal;font-size:40px;line-height:1.25;font-family:Arial;-inkscape-font-specification:Arial;white-space:pre;shape-inside:url(#rect111832-9);display:inline"><tspan
         x="-589.92383"
         y="1199.206"
         id="tspan7905">I</tspan></text>
    <path
       id="rect3894-9"
       style="fill:#ffffff;fill-rule:evenodd;stroke:#aa0000;stroke-width:0"
       d="M 224.34961 344.6543 L 224.34961 366.50977 L 250.57812 366.50977 L 250.57812 344.6543 L 224.34961 344.6543 z M 283.23828 388.12695 L 267.21289 389.16211 C 267.21289 389.16211 279.6181 401.72393 280.17383 419.32031 L 283.23828 419.14648 L 283.23828 388.12695 z "
       transform="scale(0.26458333)" />
    <rect
       style="fill:#000000;fill-opacity:1;fill-rule:evenodd;stroke:#aa0000;stroke-width:0;stroke-miterlimit:4;stroke-dasharray:none"
       id="rect5985-6"
       width="3.3238485"
       height="7.9194369"
       x="64.868103"
       y="94.169487" />
    <path
       id="rect5985-6-9"
       style="fill:#000000;fill-opacity:1;fill-rule:evenodd;stroke:#aa0000;stroke-width:0;stroke-miterlimit:4;stroke-dasharray:none"
       d="M 213.33398 335.91016 L 213.33398 357.76758 L 217.19336 357.76758 L 217.19336 385.84766 L 229.75586 385.84766 L 229.75586 357.76758 L 261.48828 357.76758 L 261.48828 335.91016 L 213.33398 335.91016 z "
       transform="scale(0.26458333)" />
  </g>
</svg>
