<?xml version="1.0" encoding="UTF-8" standalone="no"?>
<!-- Created with Inkscape (http://www.inkscape.org/) -->

<svg
   width="210mm"
   height="297mm"
   viewBox="0 0 210 297"
   version="1.1"
   id="svg7582"
   inkscape:version="1.1.1 (3bf5ae0d25, 2021-09-20)"
   sodipodi:docname="Arneis_logo_.svg"
   xmlns:inkscape="http://www.inkscape.org/namespaces/inkscape"
   xmlns:sodipodi="http://sodipodi.sourceforge.net/DTD/sodipodi-0.dtd"
   xmlns="http://www.w3.org/2000/svg"
   xmlns:svg="http://www.w3.org/2000/svg">
  <sodipodi:namedview
     id="namedview7584"
     pagecolor="#ffffff"
     bordercolor="#666666"
     borderopacity="1.0"
     inkscape:pageshadow="2"
     inkscape:pageopacity="0.0"
     inkscape:pagecheckerboard="0"
     inkscape:document-units="mm"
     showgrid="false"
     inkscape:zoom="2.3718155"
     inkscape:cx="335.81871"
     inkscape:cy="432.79084"
     inkscape:window-width="1920"
     inkscape:window-height="1017"
     inkscape:window-x="-8"
     inkscape:window-y="-8"
     inkscape:window-maximized="1"
     inkscape:current-layer="layer2"
     inkscape:snap-nodes="false"
     inkscape:snap-others="false"
     inkscape:snap-object-midpoints="true" />
  <defs
     id="defs7579">
    <rect
       x="-589.92334"
       y="1163.175"
       width="224.42737"
       height="268.0304"
       id="rect111832-9" />
  </defs>
  <g
     inkscape:label="Livello 1"
     inkscape:groupmode="layer"
     id="layer1">
    <rect
       style="fill:#e4d96f;fill-opacity:1;fill-rule:evenodd;stroke:#aa0000;stroke-width:0;stroke-miterlimit:4;stroke-dasharray:none"
       id="rect7111"
       width="20.013012"
       height="29.406334"
       x="52.605705"
       y="107.4263" />
    <path
       id="text10992-5-9-7"
       style="font-style:normal;font-variant:normal;font-weight:normal;font-stretch:condensed;font-size:43.4138px;line-height:1.25;font-family:Arial;-inkscape-font-specification:'Arial Condensed';display:inline;stroke-width:4.10215"
       d="M 560.95312 395.30859 C 550.53766 395.30859 542.25964 398.32765 536.11719 404.36328 C 529.97473 410.39891 526.9043 418.17028 526.9043 427.67773 C 526.9043 432.96559 527.97092 437.71985 530.10742 441.93945 C 532.24393 446.10564 535.23632 449.54939 539.08203 452.27344 C 542.92774 454.99748 549.39055 457.6946 558.4707 460.36523 C 568.67252 463.35634 575.29532 465.68015 578.33984 467.33594 C 581.43778 468.99173 583.73491 471.12887 585.23047 473.74609 C 586.77944 476.3099 587.55273 479.32701 587.55273 482.79883 C 587.55273 488.72763 585.44421 493.5619 581.22461 497.30078 C 577.83267 500.30134 573.30628 502.07909 567.64844 502.63672 L 567.64844 516.63086 C 573.1974 516.13163 578.07218 514.76548 582.26562 512.52344 C 587.71371 509.63915 592.01272 505.44682 595.16406 499.94531 C 598.31541 494.3904 599.89258 488.24757 599.89258 481.51758 C 599.89258 474.73417 598.39541 468.91133 595.4043 464.05078 C 592.41319 459.13682 587.98086 455.18447 582.10547 452.19336 C 578.25976 450.2705 571.58362 448.00003 562.07617 445.38281 C 552.35507 442.71218 546.10558 440.06839 543.32812 437.45117 C 540.55067 434.83395 539.16211 431.15021 539.16211 426.39648 C 539.16211 421.26887 541.05731 417.10124 544.84961 413.89648 C 548.64191 410.63831 554.14476 409.00977 561.35547 409.00977 C 568.45935 409.00977 573.96025 410.85164 577.85938 414.53711 C 581.81191 418.22258 584.10905 423.88543 584.75 431.52344 L 597.00781 430.40234 C 596.79416 423.24505 595.19228 417.02223 592.20117 411.73438 C 589.26348 406.44652 585.09585 402.38751 579.70117 399.55664 C 574.35991 396.72577 568.11042 395.30859 560.95312 395.30859 z "
       transform="scale(0.26458333)" />
    <g
       aria-label="R"
       id="text99602-8-2"
       style="font-stretch:condensed;font-size:103.342px;line-height:1.25;font-family:Arial;-inkscape-font-specification:'Arial Condensed';display:inline;stroke-width:2.58357"
       transform="matrix(0.43713872,0,0,0.43713872,27.906608,-148.09)">
      <path
         d="m 97.640706,651.77887 v -73.97431 h 26.895164 c 5.61787,0 9.75559,0.68962 12.41315,2.06886 2.69119,1.37924 4.89461,3.68358 6.61025,6.91302 1.71564,3.19579 2.57346,6.91301 2.57346,11.15165 0,5.58423 -1.46334,10.10881 -4.39002,13.57373 -2.89303,3.46492 -7.11485,5.66834 -12.66545,6.61025 10.58269,9.47664 22.45311,22.62131 28.52676,33.71161 h -7.72568 c -6.90682,-8.44196 -20.30403,-23.66065 -28.67283,-31.79416 -1.48016,-0.74008 -3.56584,-1.11012 -6.25704,-1.11012 h -9.28463 v 32.84944 z m 8.023134,-41.32671 h 17.25731 c 3.76767,0 6.62707,-0.45414 8.57819,-1.36242 1.95112,-0.90828 3.49856,-2.33798 4.64232,-4.2891 1.14376,-1.95111 1.71564,-4.22181 1.71564,-6.81209 0,-3.73404 -1.0933,-6.66072 -3.2799,-8.78003 -2.1866,-2.15296 -5.43286,-3.22944 -9.73877,-3.22944 h -19.17479 z"
         id="path2966-8"
         sodipodi:nodetypes="ccsccscccccsccccsssscscc" />
    </g>
    <text
       xml:space="preserve"
       style="font-style:normal;font-variant:normal;font-weight:normal;font-stretch:condensed;font-size:38.271px;line-height:1.25;font-family:Arial;-inkscape-font-specification:'Arial Condensed';display:inline;stroke-width:0.956788"
       x="97.026726"
       y="-67.894073"
       id="text10096-1-5-5"
       transform="matrix(-0.00202434,1.1865239,-0.84279317,-0.00284997,0,0)"><tspan
         sodipodi:role="line"
         id="tspan10094-0-9-1"
         style="font-style:normal;font-variant:normal;font-weight:normal;font-stretch:condensed;font-family:Arial;-inkscape-font-specification:'Arial Condensed';stroke-width:0.956788"
         x="97.026726"
         y="-67.894073">I</tspan></text>
    <text
       xml:space="preserve"
       style="font-style:normal;font-variant:normal;font-weight:normal;font-stretch:condensed;font-size:45.0374px;line-height:1.25;font-family:Arial;-inkscape-font-specification:'Arial Condensed';display:inline;stroke-width:1.12593"
       x="108.17059"
       y="136.75937"
       id="text6334-3-31-1"><tspan
         sodipodi:role="line"
         id="tspan6332-3-6-2"
         style="font-style:normal;font-variant:normal;font-weight:normal;font-stretch:condensed;font-family:Arial;-inkscape-font-specification:'Arial Condensed';stroke-width:1.12593"
         x="108.17059"
         y="136.75937">E</tspan></text>
    <g
       aria-label="N"
       id="text8850-6-7-3"
       style="font-stretch:condensed;font-size:103.413px;line-height:1.25;font-family:Arial;-inkscape-font-specification:'Arial Condensed';display:inline;stroke-width:2.58533"
       transform="matrix(0.43561166,0,0,0.43561166,28.13548,-147.17998)">
      <path
         d="m 149.87834,651.83368 v -74.02513 h 8.23063 l 31.9126,58.11932 v -58.11932 h 7.67519 v 74.02513 h -8.23063 l -31.86211,-58.16981 v 58.16981 z"
         id="path3083-9" />
    </g>
    <rect
       style="display:inline;fill:#000000;fill-opacity:1;fill-rule:evenodd;stroke:#e19200;stroke-width:0;stroke-miterlimit:4;stroke-dasharray:none"
       id="rect77370-1-8-7"
       width="21.834562"
       height="3.8226089"
       x="128.9129"
       y="132.94711" />
    <text
       xml:space="preserve"
       transform="matrix(1.0358566,0,0,0.92856983,740.87333,-982.47133)"
       id="text111830-5"
       style="font-style:normal;font-variant:normal;font-weight:normal;font-stretch:normal;font-size:40px;line-height:1.25;font-family:Arial;-inkscape-font-specification:Arial;white-space:pre;shape-inside:url(#rect111832-9);display:inline"><tspan
         x="-589.92383"
         y="1199.206"
         id="tspan9994">I</tspan></text>
    <path
       id="rect3894-9"
       style="fill:#ffffff;fill-rule:evenodd;stroke:#aa0000;stroke-width:0"
       d="M 224.34961 344.6543 L 224.34961 366.50977 L 250.57812 366.50977 L 250.57812 344.6543 L 224.34961 344.6543 z M 283.23828 388.12695 L 267.21289 389.16211 C 267.21289 389.16211 279.6181 401.72393 280.17383 419.32031 L 283.23828 419.14648 L 283.23828 388.12695 z "
       transform="scale(0.26458333)" />
    <rect
       style="fill:#000000;fill-opacity:1;fill-rule:evenodd;stroke:#aa0000;stroke-width:0;stroke-miterlimit:4;stroke-dasharray:none"
       id="rect5985-6"
       width="3.3238485"
       height="7.9194369"
       x="64.868103"
       y="94.169487" />
    <path
       id="rect5985-6-9"
       style="fill:#000000;fill-opacity:1;fill-rule:evenodd;stroke:#aa0000;stroke-width:0;stroke-miterlimit:4;stroke-dasharray:none"
       d="M 213.33398 335.91016 L 213.33398 357.76758 L 217.19336 357.76758 L 217.19336 385.84766 L 229.75586 385.84766 L 229.75586 357.76758 L 261.48828 357.76758 L 261.48828 335.91016 L 213.33398 335.91016 z "
       transform="scale(0.26458333)" />
  </g>
  <g
     inkscape:groupmode="layer"
     id="layer2"
     inkscape:label="Livello 2">
    <path
       id="path73362-8-1-5"
       style="display:inline;fill:#000000;fill-opacity:1;fill-rule:evenodd;stroke:#e19200;stroke-width:0;stroke-miterlimit:4;stroke-dasharray:none"
       d="M 245.16992 378.53516 L 245.16992 391.54492 A 29.863535 29.923653 0 0 1 267.53516 418.29883 A 29.863535 29.923653 0 0 1 267.30664 424.64062 L 270.01172 424.64062 L 270.01172 448.07227 A 42.466479 42.550875 0 0 0 280.125 417.65625 L 280.10156 417.32617 A 42.466479 42.550875 0 0 0 245.16992 378.53516 z M 229.7168 378.74805 A 42.466479 42.550875 0 0 0 195.29297 419.87305 L 195.28711 419.87305 L 195.28711 420.02148 A 42.466479 42.550875 0 0 0 195.28711 420.34375 L 195.28711 515.5 L 207.9082 515.5 L 207.9082 450.65039 A 42.466479 42.550875 0 0 0 208.07031 450.80078 L 208.07031 424.64062 L 208.19727 424.64062 A 29.863535 29.923653 0 0 1 207.94922 422.40625 A 29.863535 29.923653 0 0 1 207.9082 420.64062 L 207.9082 419.87305 L 207.89062 419.87305 A 29.863535 29.923653 0 0 1 229.7168 391.63867 L 229.7168 378.74805 z "
       transform="scale(0.26458333)" />
    <rect
       style="fill:#000000;fill-opacity:1;fill-rule:evenodd;stroke:#aa0000;stroke-width:0;stroke-miterlimit:4;stroke-dasharray:none"
       id="rect9888"
       width="3.3337483"
       height="3.3974447"
       x="51.668064"
       y="133.45164" />
  </g>
</svg>
