<?xml version="1.0" encoding="UTF-8" standalone="no"?>
<!-- Created with Inkscape (http://www.inkscape.org/) -->

<svg
   width="210mm"
   height="297mm"
   viewBox="0 0 210 297"
   version="1.1"
   id="svg5"
   inkscape:version="1.1.1 (3bf5ae0d25, 2021-09-20)"
   sodipodi:docname="Barolo_logo_shade.svg"
   xmlns:inkscape="http://www.inkscape.org/namespaces/inkscape"
   xmlns:sodipodi="http://sodipodi.sourceforge.net/DTD/sodipodi-0.dtd"
   xmlns:xlink="http://www.w3.org/1999/xlink"
   xmlns="http://www.w3.org/2000/svg"
   xmlns:svg="http://www.w3.org/2000/svg">
  <sodipodi:namedview
     id="namedview7"
     pagecolor="#ffffff"
     bordercolor="#666666"
     borderopacity="1.0"
     inkscape:pageshadow="2"
     inkscape:pageopacity="0.0"
     inkscape:pagecheckerboard="0"
     inkscape:document-units="mm"
     showgrid="true"
     inkscape:snap-object-midpoints="true"
     inkscape:snap-center="true"
     inkscape:snap-global="true"
     inkscape:snap-others="true"
     inkscape:snap-intersection-paths="false"
     inkscape:zoom="0.8237794"
     inkscape:cx="339.28986"
     inkscape:cy="515.30786"
     inkscape:window-width="1920"
     inkscape:window-height="1017"
     inkscape:window-x="-8"
     inkscape:window-y="-8"
     inkscape:window-maximized="1"
     inkscape:current-layer="layer2"
     showguides="true"
     inkscape:object-nodes="true">
    <inkscape:grid
       type="xygrid"
       id="grid845" />
  </sodipodi:namedview>
  <defs
     id="defs2">
    <linearGradient
       inkscape:collect="always"
       id="linearGradient23645">
      <stop
         style="stop-color:#3e0c00;stop-opacity:1"
         offset="0"
         id="stop23641" />
      <stop
         style="stop-color:#900c00;stop-opacity:1"
         offset="1"
         id="stop23643" />
    </linearGradient>
    <linearGradient
       id="linearGradient21008"
       inkscape:swatch="solid">
      <stop
         style="stop-color:#900c00;stop-opacity:1;"
         offset="0"
         id="stop21006" />
    </linearGradient>
    <clipPath
       clipPathUnits="userSpaceOnUse"
       id="clipPath38">
      <use
         x="0"
         y="0"
         xlink:href="#g34"
         id="use40" />
    </clipPath>
    <linearGradient
       inkscape:collect="always"
       xlink:href="#linearGradient23645"
       id="linearGradient45337"
       x1="79.392303"
       y1="143.88483"
       x2="125.97107"
       y2="143.88483"
       gradientUnits="userSpaceOnUse"
       gradientTransform="matrix(1,0,0,0.95369768,-0.77880312,2.3068602)" />
  </defs>
  <g
     inkscape:label="Livello 1"
     inkscape:groupmode="layer"
     id="layer1"
     style="display:inline">
    <g
       id="g36"
       clip-path="url(#clipPath38)">
      <g
         inkscape:label="Clip"
         id="g34" />
    </g>
    <g
       id="g1725">
      <g
         id="g1753">
        <g
           id="g1757" />
      </g>
    </g>
    <path
       id="path1222-5"
       style="display:inline;fill:#4d4d4d;stroke-width:0.289377"
       d="m 102.68177,63.651945 a 80.232054,80.232054 0 0 0 -8.671733,0.526194 l -6.440356,17.715353 a 63.834267,63.834267 0 0 0 -17.627189,7.22541 l -17.067648,-8.12237 a 80.232054,80.232054 0 0 0 -12.70663,12.61451 l 7.998587,17.135468 a 63.834267,63.834267 0 0 0 -7.350878,17.55993 l -17.773571,6.3115 a 80.232054,80.232054 0 0 0 -0.592886,9.26631 80.232054,80.232054 0 0 0 0.526194,8.67172 l 17.715356,6.44036 a 63.834267,63.834267 0 0 0 7.225406,17.62719 l -8.122365,17.06764 a 80.232054,80.232054 0 0 0 12.614507,12.70663 l 17.135469,-7.99859 a 63.834267,63.834267 0 0 0 17.559934,7.35089 l 6.311486,17.77357 a 80.232054,80.232054 0 0 0 9.266317,0.59288 80.232054,80.232054 0 0 0 8.67173,-0.5262 l 6.44035,-17.71535 a 63.834267,63.834267 0 0 0 17.62719,-7.2254 l 17.06764,8.12236 a 80.232054,80.232054 0 0 0 12.70663,-12.6145 l -7.99858,-17.13547 a 63.834267,63.834267 0 0 0 7.35087,-17.55993 l 17.77358,-6.31149 a 80.232054,80.232054 0 0 0 0.59288,-9.26631 80.232054,80.232054 0 0 0 -0.4725,-8.65195 l -17.74192,-6.44998 a 63.834267,63.834267 0 0 0 -7.23841,-17.66787 l 8.11276,-17.046728 a 80.232054,80.232054 0 0 0 -12.6128,-12.69929 l -17.10439,7.98389 a 63.834267,63.834267 0 0 0 -17.61024,-7.37009 L 111.92942,64.1934 a 80.232054,80.232054 0 0 0 -9.24765,-0.541455 z m -0.79861,11.080577 c 3.76972,-0.0111 8.33479,0.23072 8.61463,0.53919 0.12825,0.14134 1.42217,3.61085 2.87569,7.70978 l 2.64284,7.45261 3.53131,1.11004 c 1.94199,0.61071 5.44554,2.06587 7.78608,3.23346 l 4.25533,2.12285 7.21241,-3.3431 c 3.9668,-1.83886 7.39755,-3.34367 7.62386,-3.34367 0.53852,0 10.49222,9.958538 10.49222,10.497298 0,0.22742 -1.54426,3.64886 -3.43185,7.60295 l -3.43184,7.18924 1.57236,3.03112 c 1.73903,3.35307 3.62211,8.05729 4.28358,10.7002 l 0.43011,1.71761 7.71882,2.78922 7.71938,2.78922 0.24474,2.92034 c 0.27026,3.22225 -0.0437,11.87051 -0.44425,12.23017 -0.13944,0.12522 -3.63572,1.41698 -7.76912,2.87062 l -7.51535,2.64283 -1.21402,3.77208 c -0.6678,2.07452 -2.11935,5.54859 -3.22555,7.72052 l -2.01096,3.94898 3.36741,7.20508 c 1.85219,3.96249 3.36798,7.39092 3.36798,7.61877 0,0.5459 -10.03167,10.44417 -10.58491,10.44417 -0.2351,0 -3.66115,-1.53972 -7.61311,-3.42111 l -7.18529,-3.42054 -3.0136,1.54976 c -3.47412,1.78688 -7.11317,3.23198 -10.31191,4.09424 l -2.23702,0.60307 -2.78244,7.67812 -2.78245,7.67869 -2.25397,0.21194 c -2.60656,0.24522 -8.544088,0.19707 -11.197573,-0.091 l -1.825003,-0.19838 -2.740046,-7.65383 -2.73948,-7.65381 -3.783958,-1.20838 c -2.081385,-0.66442 -5.568918,-2.10925 -7.749901,-3.21086 l -3.965386,-2.00303 -7.234449,3.35385 c -3.979011,1.8445 -7.422172,3.35327 -7.650995,3.35327 -0.530722,0 -10.48769,-9.98054 -10.48769,-10.51256 0,-0.21873 1.538321,-3.62019 3.418277,-7.5583 l 3.418277,-7.15984 -1.985518,-4.01059 c -1.092083,-2.20587 -2.510704,-5.70886 -3.152637,-7.78439 l -1.167683,-3.77378 -7.694518,-2.76548 -7.694513,-2.76491 -0.244727,-3.25099 c -0.261612,-3.47155 0.0446,-11.53388 0.451586,-11.89105 0.134602,-0.11815 3.625041,-1.40149 7.756687,-2.85196 l 7.511957,-2.63718 1.217425,-3.7817 c 0.669519,-2.07994 2.122164,-5.55875 3.228373,-7.73068 l 2.011514,-3.94899 -3.36741,-7.2045 c -1.852181,-3.96251 -3.367974,-7.3817 -3.367974,-7.59787 0,-0.547078 10.011233,-10.465078 10.563424,-10.465078 0.246932,0 3.669325,1.53323 7.605214,3.40697 l 7.155889,3.40641 4.033203,-1.97987 c 2.218237,-1.08912 5.738643,-2.50376 7.822819,-3.14303 l 3.78904,-1.16203 2.776788,-7.66286 2.776781,-7.6623 3.264544,-0.24473 c 0.891664,-0.0668 2.059963,-0.0986 3.316553,-0.1023 z" />
  </g>
  <g
     inkscape:groupmode="layer"
     id="layer2"
     inkscape:label="Livello 2"
     style="display:inline">
    <g
       id="g1693">
      <g
         id="g1720" />
    </g>
    <path
       id="path8787"
       style="opacity:1;fill:url(#linearGradient45337);fill-opacity:1;stroke:#ffffff;stroke-width:1.7;stroke-miterlimit:4;stroke-dasharray:none;stroke-opacity:1;fill-rule:evenodd"
       d="m 101.37199,46.835385 v 10e-4 l -8.136976,0.02429 v 9.737392 l 0.840777,-0.0036 c 0.730049,2.000681 0.732555,2.013205 0.655257,2.900599 h 0.05943 c -0.189442,9.168145 -0.562237,18.306666 -0.751377,27.474809 -0.365789,3.988546 -1.238041,5.937602 -5.211051,8.542631 -1.05465,0.791028 -2.252072,1.457404 -3.169833,2.428275 -1.276098,1.409289 -2.193059,3.080339 -2.909898,4.803329 -0.07819,0.18561 -0.160178,0.39739 -0.227377,0.56999 -0.802881,2.10466 -1.321295,4.30114 -1.636075,6.51846 -0.04467,0.3167 -0.08728,0.65461 -0.122473,0.95963 -0.14165,1.25134 -0.218461,2.5088 -0.236162,3.76722 -0.009,3.01626 -0.0011,6.03277 -0.0041,9.04906 0.0069,1.32573 -0.01726,2.65156 0.01964,3.97701 0.003,34.76297 0,69.52575 0,104.28873 0.008,2.11605 -0.183473,7.81111 3.033408,9.03149 l 17.79685,0.0274 h 2.61947 l 17.79685,-0.0274 c 3.21688,-1.22038 3.0254,-6.91544 3.03342,-9.03149 0,-34.76298 -0.003,-69.52576 0,-104.28873 0.0369,-1.32545 0.0127,-2.65128 0.0196,-3.97701 -0.003,-3.01629 0.005,-6.0328 -0.004,-9.04906 -0.0177,-1.25842 -0.0945,-2.51588 -0.23615,-3.76722 -0.0352,-0.30501 -0.0778,-0.64293 -0.12248,-0.95963 -0.31478,-2.21732 -0.83319,-4.4138 -1.63607,-6.51846 -0.0672,-0.1726 -0.1492,-0.38438 -0.22738,-0.56999 -0.71685,-1.72299 -1.6338,-3.39404 -2.9099,-4.803329 -0.91775,-0.970871 -2.11518,-1.637247 -3.16983,-2.428275 -3.97301,-2.60503 -4.84526,-4.554085 -5.21105,-8.542631 -0.18914,-9.168144 -0.56194,-18.306664 -0.75138,-27.474808 h 0.0594 c -0.0773,-0.887394 -0.0748,-0.899922 0.65526,-2.9006 l 0.84077,0.0036 v -9.737391 l -8.13697,-0.02429 v -10e-4 z" />
    <g
       id="rect3306"
       style="opacity:0.75" />
    <text
       xml:space="preserve"
       style="font-weight:bold;font-size:50.8px;line-height:1.25;font-family:Arial;-inkscape-font-specification:'Arial Bold';stroke-width:0.264583"
       x="84.888824"
       y="163.68977"
       id="text61793"
       inkscape:transform-center-x="0.42965666"
       inkscape:transform-center-y="-4.7262233"><tspan
         sodipodi:role="line"
         id="tspan61791"
         style="font-size:50.8px;fill:#ffffff;fill-opacity:1;stroke-width:0.264583"
         x="84.888824"
         y="163.68977">B</tspan></text>
  </g>
  <g
     inkscape:groupmode="layer"
     id="layer3"
     inkscape:label="Livello 3"
     style="display:inline" />
  <g
     inkscape:groupmode="layer"
     id="layer4"
     inkscape:label="Livello 4"
     style="display:inline">
    <g
       id="g1689" />
  </g>
</svg>
